# xmcd
#
# Track frame offsets:
#  150
#  17224
#  33699
#  51116
#  69188
#  86292
#  110510
#  129572
#  151702
#  174277
#  198609
#  221017
#  241251
#  260737
#
# Disc length: 3763 seconds
#
# Revision: 0
# Processed by: cddbd v1.4PL0 Copyright (c) Steve Scherf et al.
# Submitted via: AltoMP3_Maker 3.0
#
DISCID=bc0eb10e
DTITLE=Various Artist - The world of R&B disc 2
DYEAR=1900
DGENRE=
TTITLE0=I swear
TTITLE1=Sunshine of my life
TTITLE2=Wrekonize
TTITLE3=Ready or not
TTITLE4=Where are you now
TTITLE5=Inside my room
TTITLE6=You can count on me
TTITLE7=Think of my baby
TTITLE8=Whatever happened
TTITLE9=Love's calling
TTITLE10=How long can you go
TTITLE11=Bedtime story
TTITLE12=If loving you is wrong
TTITLE13=You're gonna come back to me
EXTD=
EXTT0=
EXTT1=
EXTT2=
EXTT3=
EXTT4=
EXTT5=
EXTT6=
EXTT7=
EXTT8=
EXTT9=
EXTT10=
EXTT11=
EXTT12=
EXTT13=
PLAYORDER=
